<svg width="24" height="23" viewBox="0 0 24 23" fill="none" xmlns="http://www.w3.org/2000/svg">
<path d="M5.35167 9.95342C4.47271 10.5139 3.22704 9.95342 2.57501 8.69896C1.92297 7.44449 2.09818 5.98144 2.97714 5.42682C3.8561 4.87221 5.10369 5.43365 5.75956 6.68226C6.41542 7.93088 6.23159 9.39978 5.35167 9.95342Z" fill="white"/>
<path d="M5.35167 9.95342C4.47271 10.5139 3.22704 9.95342 2.57501 8.69896C1.92297 7.44449 2.09818 5.98144 2.97714 5.42682C3.8561 4.87221 5.10369 5.43365 5.75956 6.68226C6.41542 7.93088 6.23159 9.39978 5.35167 9.95342Z" fill="white"/>
<path d="M19.2804 9.95342C20.1584 10.5139 21.405 9.95342 22.057 8.69896C22.7091 7.44449 22.5358 5.98144 21.6511 5.42682C20.7664 4.87221 19.5264 5.43365 18.8744 6.68226C18.2224 7.93088 18.4014 9.39978 19.2804 9.95342Z" fill="white"/>
<path d="M19.2804 9.95342C20.1584 10.5139 21.405 9.95342 22.057 8.69896C22.7091 7.44449 22.5358 5.98144 21.6511 5.42682C20.7664 4.87221 19.5264 5.43365 18.8744 6.68226C18.2224 7.93088 18.4014 9.39978 19.2804 9.95342Z" fill="white"/>
<path d="M9.95779 6.0077C8.83467 6.30012 7.63879 5.20648 7.27687 3.55628C6.91494 1.90608 7.5373 0.339708 8.66041 0.0472924C9.78353 -0.245123 10.9765 0.848512 11.3413 2.49774C11.7061 4.14696 11.0752 5.71334 9.95779 6.0077Z" fill="white"/>
<path d="M9.95779 6.0077C8.83467 6.30012 7.63879 5.20648 7.27687 3.55628C6.91494 1.90608 7.5373 0.339708 8.66041 0.0472924C9.78353 -0.245123 10.9765 0.848512 11.3413 2.49774C11.7061 4.14696 11.0752 5.71334 9.95779 6.0077Z" fill="white"/>
<path d="M16.2045 0.118425C17.3764 0.331889 18.1175 1.84953 17.8551 3.50655C17.5928 5.16357 16.4486 6.33324 15.2757 6.12075C14.1028 5.90826 13.3694 4.39257 13.625 2.73652C13.8807 1.08047 15.0325 -0.0999117 16.2045 0.118425Z" fill="white"/>
<path d="M16.2045 0.118425C17.3764 0.331889 18.1175 1.84953 17.8551 3.50655C17.5928 5.16357 16.4486 6.33324 15.2757 6.12075C14.1028 5.90826 13.3694 4.39257 13.625 2.73652C13.8807 1.08047 15.0325 -0.0999117 16.2045 0.118425Z" fill="white"/>
<path d="M17.0323 15.4665C17.0323 15.4665 18.1935 15.0699 18.7898 14.5215C18.4195 9.96137 14.9232 7.65698 11.9004 7.65698C9.61302 7.70377 7.37254 9.19411 6.18719 11.1309C6.51534 11.1904 6.83909 11.2728 7.15615 11.3775C7.75349 11.5751 8.32862 11.8365 8.87194 12.1573C9.94143 12.7869 10.8616 13.5638 11.7606 14.325C12.6597 15.0863 13.5396 15.8505 14.5201 16.4636C15.0081 16.7736 15.5271 17.0301 16.0683 17.2287C16.6159 17.4269 17.1885 17.5441 17.7688 17.5767C17.1795 17.6088 16.5888 17.5546 16.0147 17.4159C15.4362 17.2737 14.8743 17.0695 14.3381 16.8067C13.261 16.2881 12.2758 15.6058 11.303 14.9547C10.3302 14.3036 9.36408 13.6564 8.35107 13.2002C7.85677 12.9751 7.34034 12.8042 6.8105 12.6904C6.38947 12.6046 5.96065 12.5647 5.53132 12.5715C5.53132 12.5783 5.52653 12.5842 5.52461 12.591C2.51336 12.591 0 15.0376 0 17.8925C0 20.7192 2.05186 23 4.71842 23H12.5137H20.3089C22.2967 23 24 21.5253 24 19.2357C24 16.9215 22.166 15.5388 19.4703 15.3502C18.3837 15.2742 17.2533 15.4665 17.0323 15.4665Z" fill="white"/>
</svg>
