<svg width="53" height="50" viewBox="0 0 53 50" fill="none" xmlns="http://www.w3.org/2000/svg">
<path d="M11.6355 21.6378C9.72473 22.8562 7.01676 21.6378 5.59928 18.9107C4.18181 16.1836 4.56271 13.003 6.47349 11.7973C8.38427 10.5916 11.0964 11.8122 12.5222 14.5265C13.948 17.2409 13.5484 20.4342 11.6355 21.6378Z" fill="#5FB6B9"/>
<path d="M11.6355 21.6378C9.72473 22.8562 7.01676 21.6378 5.59928 18.9107C4.18181 16.1836 4.56271 13.003 6.47349 11.7973C8.38427 10.5916 11.0964 11.8122 12.5222 14.5265C13.948 17.2409 13.5484 20.4342 11.6355 21.6378Z" fill="#5FB6B9"/>
<path d="M41.9144 21.6378C43.8231 22.8562 46.5331 21.6378 47.9506 18.9107C49.3681 16.1836 48.9913 13.003 47.0681 11.7973C45.1448 10.5916 42.4493 11.8122 41.0318 14.5265C39.6144 17.2409 40.0036 20.4342 41.9144 21.6378Z" fill="#5FB6B9"/>
<path d="M41.9144 21.6378C43.8231 22.8562 46.5331 21.6378 47.9506 18.9107C49.3681 16.1836 48.9913 13.003 47.0681 11.7973C45.1448 10.5916 42.4493 11.8122 41.0318 14.5265C39.6144 17.2409 40.0036 20.4342 41.9144 21.6378Z" fill="#5FB6B9"/>
<path d="M21.6478 13.0602C19.2062 13.6959 16.6065 11.3184 15.8197 7.73105C15.0329 4.14366 16.3859 0.738496 18.8274 0.10281C21.269 -0.532877 23.8625 1.84459 24.6555 5.42986C25.4485 9.01513 24.0769 12.4203 21.6478 13.0602Z" fill="#5FB6B9"/>
<path d="M21.6478 13.0602C19.2062 13.6959 16.6065 11.3184 15.8197 7.73105C15.0329 4.14366 16.3859 0.738496 18.8274 0.10281C21.269 -0.532877 23.8625 1.84459 24.6555 5.42986C25.4485 9.01513 24.0769 12.4203 21.6478 13.0602Z" fill="#5FB6B9"/>
<path d="M35.2257 0.257245C37.7734 0.721296 39.3845 4.02051 38.8142 7.62273C38.2438 11.225 35.7565 13.7677 33.2067 13.3058C30.6569 12.8438 29.0625 9.54886 29.6183 5.94876C30.174 2.34865 32.678 -0.217401 35.2257 0.257245Z" fill="#5FB6B9"/>
<path d="M35.2257 0.257245C37.7734 0.721296 39.3845 4.02051 38.8142 7.62273C38.2438 11.225 35.7565 13.7677 33.2067 13.3058C30.6569 12.8438 29.0625 9.54886 29.6183 5.94876C30.174 2.34865 32.678 -0.217401 35.2257 0.257245Z" fill="#5FB6B9"/>
<path d="M37.0266 33.6228C37.0266 33.6228 39.5512 32.7606 40.8474 31.5684C40.0425 21.6551 32.4417 16.6455 25.8705 16.6455C20.8979 16.7472 16.0273 19.9871 13.4504 24.1975C14.1638 24.3268 14.8676 24.506 15.5568 24.7336C16.8554 25.1631 18.1057 25.7313 19.2868 26.4287C21.6118 27.7976 23.6121 29.4864 25.5666 31.1413C27.5211 32.7962 29.4339 34.4574 31.5654 35.7903C32.6264 36.4643 33.7546 37.0218 34.9311 37.4536C36.1215 37.8844 37.3664 38.1391 38.6278 38.2101C37.3468 38.2798 36.0626 38.1621 34.8145 37.8605C33.5571 37.5515 32.3353 37.1076 31.1699 36.5361C28.8282 35.4089 26.6864 33.9256 24.5717 32.5101C22.4569 31.0947 20.3567 29.6877 18.1545 28.696C17.0799 28.2067 15.9573 27.8352 14.8054 27.5878C13.8902 27.4012 12.9579 27.3146 12.0246 27.3293C12.0246 27.3441 12.0142 27.3568 12.01 27.3717C5.46384 27.3717 0 32.6902 0 38.8967C0 45.0416 4.46057 50 10.2574 50H27.2037H44.1499C48.471 50 52.1739 46.794 52.1739 41.8166C52.1739 36.7858 48.187 33.7798 42.3267 33.3699C39.9645 33.2047 37.5072 33.6228 37.0266 33.6228Z" fill="#5FB6B9"/>
</svg>
